<mxfile host="app.diagrams.net" modified="2024-05-26T14:24:55.725Z" agent="Mozilla/5.0 (Windows NT 10.0; Win64; x64) AppleWebKit/537.36 (KHTML, like Gecko) Chrome/125.0.0.0 Safari/537.36" version="24.4.8" etag="96qy_YAxZzrgghDG4b4s" type="github">
  <diagram name="Page-1" id="Vmt2uTLAZJD90zwFyBmv">
    <mxGraphModel>
      <root>
        <mxCell id="0" />
        <mxCell id="1" parent="0" />
      </root>
    </mxGraphModel>
  </diagram>
</mxfile>
